<svg width="69" height="65" viewBox="0 0 69 65" xmlns="http://www.w3.org/2000/svg"><title>icon</title><g fill="none"><path d="M6.798 33.462s1.387 3.96 0 7.422c-1.388 3.462-4.398 19.7 15.165 22.745 19.563 3.048 41.635-6.673 44.395-11.866 2.757-5.192-1.005-25.222-7.525-27.193-6.52-1.979-29.33-31.905-52.035 8.891z" stroke="#141414" fill="#F8D1B2"/><path d="M64.35 20.367s-18.56-27.689-19.063-16.811l2.76 1.727s-4.767-6.545-30.598-4.261l1.503 4.017s-10.53 1.284-16.05 13.869c-5.518 12.583 3.008-1.708 3.26 0 .253 1.705.635 14.554-4.313 16.491-4.667 1.826 7.07.044 14.095-9.35l.502 1.735 8.875-1.483v3.955l8.68-3.955 3.513 7.664s9.03-12.533 20.063-1.077l1.505-3.62s5.017 7.664 9.28 6.429c0 0-5.767-3.709-4.012-15.33z" stroke="#1A1918" fill="#525252"/><path d="M51.77 40.461c0 .667-.543 1.207-1.215 1.207-.67 0-1.213-.541-1.213-1.207 0-.67.543-1.207 1.213-1.207.672 0 1.215.537 1.215 1.207" fill="#1A1918"/><path d="M15.77 40.461c0 .667-.543 1.207-1.215 1.207-.67 0-1.213-.541-1.213-1.207 0-.67.543-1.207 1.213-1.207.672 0 1.215.537 1.215 1.207" fill="#1A1918"/><path d="M30.8 44.819s.52-.986 3.823 0" stroke="#1A1918" stroke-width=".5"/><path d="M14.693 51.764s9.995 19.49 38.587-.535c0 0-3.625-1.784-15.965-2.479-12.34-.695-22.622 3.014-22.622 3.014z" fill="#EDAEC0"/><path d="M53.28 51.23s-3.625-1.784-15.965-2.479c-12.34-.695-22.622 3.014-22.622 3.014s9.995 19.49 38.587-.535z" stroke="#1A1918" stroke-width=".75"/><path d="M11.932 51.764s12.043-2.969 19.69-3.216c7.648-.246 31.073 3.216 31.073 3.216" stroke="#1A1918" stroke-width=".75"/><path d="M12.25 31.466l5.97-.604m-10.88 17.075s.705-.796 2.795-.542c2.095.254 2.8-.552 2.8-.552" stroke="#1A1918" stroke-width=".5"/><path d="M55.4 45.781l2.38 1.607s2.58-1.727 2.48-2.1m-15.188-13.753l8.915.313" stroke="#1A1918" stroke-width=".5"/></g></svg>