<svg xmlns:sketch="http://www.bohemiancoding.com/sketch/ns" xmlns="http://www.w3.org/2000/svg" viewBox="-307 89 344 383" enable-background="new -307 89 344 383"><style type="text/css">.st0{fill:#FFE0C2;stroke:#434343;stroke-width:5;} .st1{fill:#FFE0C2;} .st2{fill:#434343;} .st3{filter:url(#Adobe_OpacityMaskFilter);} .st4{fill:#FFFFFF;} .st5{mask:url(#mask-2);fill:#EACDB1;} .st6{fill:#555555;} .st7{filter:url(#Adobe_OpacityMaskFilter_1_);} .st8{mask:url(#mask-4);fill:#5F5F5F;} .st9{fill:none;stroke:#434343;stroke-width:8;} .st10{fill:none;stroke:#434343;stroke-width:5;} .st11{fill:none;stroke:#737373;stroke-width:2;} .st12{fill:#FFB7B7;stroke:#434343;stroke-width:6;}</style><title>Group Copy</title><desc>Created with Sketch.</desc><g id="Group-Copy" transform="translate(-340 -319) translate(349 328)" sketch:type="MSLayerGroup"><path id="ear_left" sketch:type="MSShapeGroup" class="st0" d="M-271.2 318.5s-7.7-16.4-18.9-6.6l-2.3 41s16.1 34.7 25.8 34.7l20-9.1-24.6-60z"/><path id="ear_right" sketch:type="MSShapeGroup" class="st0" d="M-.9 319.8s10.6-16.4 15.6-10.9l-4.4 44.4s-11 29-22.2 24.6l-17-17.7 16.8-42.6 11.2 2.2z"/><g id="Oval-1-_x2B_-Path-12" transform="translate(32 102)"><g id="path-1_1_" sketch:type="MSShapeGroup"><path class="st1" d="M-178.8 358.3c-37.6 0-70-12-93.7-34.7-24.2-23.3-37-55.8-37-94 0-78.9 61.5-143 137-143s137 64.1 137 143c0 37.1-15.4 70.5-43.4 94.1-26.5 22.3-61.9 34.6-99.9 34.6z"/><path class="st2" d="M-172.5 89c74.3 0 134.5 62.9 134.5 140.5s-66.5 126.3-140.8 126.3-128.2-48.7-128.2-126.3 60.2-140.5 134.5-140.5m0-5c-37.3 0-72.4 15.2-98.7 42.7-26.3 27.5-40.8 64-40.8 102.8 0 39 13.1 72.1 37.8 95.8 11.9 11.4 26.1 20.3 42.3 26.3 16.3 6.1 34.1 9.1 53.1 9.1 38.5 0 74.6-12.5 101.5-35.2 13.9-11.7 24.7-25.6 32.3-41.4 8-16.7 12-35.1 12-54.6 0-38.8-14.5-75.3-40.8-102.8-26.3-27.5-61.4-42.7-98.7-42.7z"/></g><defs><filter id="Adobe_OpacityMaskFilter" filterUnits="userSpaceOnUse" x="-131.6" y="167.6" width="100.5" height="212.1"><feColorMatrix values="1 0 0 0 0 0 1 0 0 0 0 0 1 0 0 0 0 0 1 0"/></filter></defs><mask maskUnits="userSpaceOnUse" x="-131.6" y="167.6" width="100.5" height="212.1" id="mask-2"><path id="path-1" class="st4" d="M-178.8 355.8c74.3 0 140.8-48.7 140.8-126.3s-60.2-140.5-134.5-140.5-134.5 62.9-134.5 140.5 53.9 126.3 128.2 126.3z"/></mask><path id="Path-12" sketch:type="MSShapeGroup" class="st5" d="M-131.6 365.2s58.3-70.7 70.9-103l10-94.6 17.8 62.8s13.2 157.5-31.5 149l-67.2-14.2z"/></g><g id="hair-_x2B_-Path-13"><g id="path-3_1_" sketch:type="MSShapeGroup"><path class="st6" d="M-291.1 305.5l-19.5-25.4 22.1-26.3-22.6-29.6 41.1-27.6-19.3-27.8 56-19.9 17.5-50.9 51.2 14.9 33.9-28.3 20.6 28.5 64.2-5.1v46.2l39.3 10.8-5.8 34.6 35.8 24.3-22 47.2 4.3 33.1-12.8 50.2-5.8-.1-13.4-62.1-12.2 40.4-25.5-93.2-36 76.2-16.2-71.6-23.2 77.2-29.9-71.8-9.5 68.4-29.4-71.1-35.3 91.8-5.6-29-22.7 55.6z"/><path class="st2" d="M-131.3 89l19.8 27.2 62.6-5v45.2l38.9 10.7-5.6 33.9 35.2 23.9-21.3 45.7 4.4 33.4-12.7 49.6-15.8-73.4-12.5 41.6-24.9-91-35.8 75.7-16.7-74.3-24.1 80.1-30.8-74.2-9.6 68.3-28-67.8-34.3 89-5.5-28.6-23.4 57.3-16.9-52.4-18.3-23.8 22.1-26.3-22.1-29 40.9-27.5-18.8-27.2 53.7-19 17-49.6 49.9 14.6 32.6-27.1m1.1-8.7l-4.9 4.1-30.2 25.2-46.9-13.7-5.5-1.6-1.9 5.4-16.1 46.9-51 18.1-7.4 2.6 4.5 6.4 15.3 22.2-35.9 24.1-5.3 3.6 3.9 5.1 19.2 25.2-19 22.6-3.1 3.7 2.9 3.8 17.7 23 16.6 51.4 5.1 15.6 6.2-15.2 15.8-38.7 1.7 8.8 4 20.6 7.5-19.5 28.9-75 22.3 53.9 8.4 20.4 3.1-21.9 6.5-46.6 22.4 53.9 6.4 15.5 4.8-16.1 17.6-58.3 11.7 52 3.8 17 7.4-15.8 28.8-61 20.6 75.4 5.5 20.1 6-20 5.8-19.3 10.9 50.7 11.7.2 12.7-49.6.3-1.1-.1-1.1-4.1-31.7 20.6-44.1 2.2-4.6-4.2-2.9-32-21.7 5-30.1.9-5.3-5.2-1.4-34.4-9.5v-47.1l-6.5.5-59.3 4.7-17.8-24.5-3.9-5.3z"/></g><defs><filter id="Adobe_OpacityMaskFilter_1_" filterUnits="userSpaceOnUse" x="-380" y="52.3" width="272.5" height="341.8"><feColorMatrix values="1 0 0 0 0 0 1 0 0 0 0 0 1 0 0 0 0 0 1 0"/></filter></defs><mask maskUnits="userSpaceOnUse" x="-380" y="52.3" width="272.5" height="341.8" id="mask-4"><path id="path-3" class="st4" d="M-306.7 224.9l40.9-27.5-18.8-27.2 53.7-19 17-49.6 49.9 14.6 32.7-27.2 19.8 27.2 62.6-5v45.2l38.9 10.7-5.6 33.9 35.2 23.9-21.3 45.7 4.4 33.4-12.7 49.6-15.8-73.4-12.5 41.6-24.9-91-35.8 75.7-16.7-74.3-24.1 80.1-30.8-74.2-9.6 68.3-28-67.8-34.3 89-5.5-28.6-23.4 57.3-16.9-52.4-18.3-23.8 22.1-26.3-22.2-28.9z"/></mask><path id="Path-13" sketch:type="MSShapeGroup" class="st8" d="M-107.5 101.2l-78.5 181.3-90.7 111.6-103.3-150.3 147.8-191.5 103.2 28.4 21.5 20.5z"/></g><circle id="eye-right" sketch:type="MSShapeGroup" class="st2" cx="-74.5" cy="342.5" r="6.5"/><circle id="eye-left" sketch:type="MSShapeGroup" class="st2" cx="-215.5" cy="342.5" r="6.5"/><path id="blow-left" sketch:type="MSShapeGroup" class="st9" d="M-242.5 303.3s35-12.9 49.3 2.9"/><path id="blow-right" sketch:type="MSShapeGroup" class="st9" d="M-92.4 305.2s36-9.8 48.8 7.2"/><path id="nose" sketch:type="MSShapeGroup" class="st10" d="M-163.9 365s8.6-2.7 12.7-2.7c4.3 0 12.7 2.7 12.7 2.7"/><path id="faceline-left" sketch:type="MSShapeGroup" class="st11" d="M-258.9 371.2l31.1 1-5.7 1.3-19.2 4.2 26.4-1.7"/><path id="faceline-right" sketch:type="MSShapeGroup" class="st11" d="M-69 368.2l34.3 6.3h-32.4l22.5 6.1"/><path id="mouse" sketch:type="MSShapeGroup" class="st12" d="M-229 389.4h162.4c6.8 0 2 12-1.7 19.5s-24.4 37.2-78.1 37.2c-53.6 0-75.6-28-80.7-35.7s-6.1-21-1.9-21z"/><path id="tooth" sketch:type="MSShapeGroup" class="st4" d="M-214 392h134v13h-134z"/></g></svg>